# xmcd
#
# Track frame offsets:
#	183
#	11300
#	23640
#	35490
#	50165
#	62828
#	72600
#	83410
#	93680
#	111670
#	121570
#	133108
#	148340
#	161530
#	173835
#	188633
#	202130
#	213998
#	226125
#	240220
#	254323
#	280045
#	290470
#	304263
#	321898
#
# Disc length: 4406 seconds
#
# Revision: 2
# Processed by: cddbd v1.4PL0 Copyright (c) Steve Scherf et al.
# Submitted via: audiograbber 1.82.02
#
DISCID=6a113419
DTITLE=Various Artist - 25 Super Soul Hits - Disk 2
DYEAR=1992
DGENRE=Soul
TTITLE0=Aretha Franklin - Respect
TTITLE1=Otis Redding - Satisfaction
TTITLE2=Joe Tex - She's Mine
TTITLE3=Sam and Dave - When Something Is Wrong With My Baby
TTITLE4=Lou Rawls - For What It's Worth
TTITLE5=James Brown - Papa's Got A Brand New Bag
TTITLE6=Lee Dorsey - Ya Ya
TTITLE7=Ike and Tina Turner - Shake A Tail Feather
TTITLE8=Solomon Burke - Please Come Home Back To Me
TTITLE9=Wilson Pickett - Baby Don't Weep
TTITLE10=Robert Parker - Barefootin'
TTITLE11=George McCrae - Rock Your Baby
TTITLE12=Commodores - Come By Here
TTITLE13=Ike and Tina Turner - We Need Understanding
TTITLE14=Aretha Franklin - Share Your Love With Me
TTITLE15=The Drifters - On Broadway
TTITLE16=Wilson Pickett - I'll Never Be The Same
TTITLE17=King Curtis - Soul Twist
TTITLE18=The Isley Brothers - Don't You Feel
TTITLE19=Ike and Tina Turner - It Sho' Ain't Me
TTITLE20=James Brown - The Right Time (The Night Time Is The Right Time)
TTITLE21=Soul Survivors - Expressway To Your Heart
TTITLE22=Commodores - Cowboy To Girls
TTITLE23=Otis Redding - Good To Me
TTITLE24=Sam Cooke - Only Sixteen
EXTD=
EXTT0=
EXTT1=
EXTT2=
EXTT3=
EXTT4=
EXTT5=
EXTT6=
EXTT7=
EXTT8=
EXTT9=
EXTT10=
EXTT11=
EXTT12=
EXTT13=
EXTT14=
EXTT15=
EXTT16=
EXTT17=
EXTT18=
EXTT19=
EXTT20=
EXTT21=
EXTT22=
EXTT23=
EXTT24=
PLAYORDER=
